<svg id="Layer_1" data-name="Layer 1" xmlns="http://www.w3.org/2000/svg" xmlns:xlink="http://www.w3.org/1999/xlink" viewBox="0 0 1830.75 506.33"><defs><style>.cls-1{fill:none;}.cls-2{fill:#fff;}.cls-3{clip-path:url(#clip-path);}.cls-4{clip-path:url(#clip-path-2);}</style><clipPath id="clip-path" transform="translate(-44.25 -258.67)"><path class="cls-1" d="M1333,491.74c-13,3.46-26.07-5.67-29.13-20.39s5-29.46,18.05-32.92,26.07,5.68,29.13,20.4a30.7,30.7,0,0,1,0,12.52C1348.93,481.46,1341.94,489.35,1333,491.74Z"/></clipPath><clipPath id="clip-path-2" transform="translate(-44.25 -258.67)"><path class="cls-1" d="M1146.82,645.5V273.78h198.75v68.56H1210.44v64.58h6.18c21.81.22,41.18,17.39,44.9,41.67,4.22,27.52-12.1,53.69-36.45,58.47a40.28,40.28,0,0,1-7.17.74l-7.44.07v69h137.59v68.54Z"/></clipPath></defs><path class="cls-2" d="M1333,491.74c-13,3.46-26.07-5.67-29.13-20.39s5-29.46,18.05-32.92,26.07,5.68,29.13,20.4a30.7,30.7,0,0,1,0,12.52C1348.93,481.46,1341.94,489.35,1333,491.74Z" transform="translate(-44.25 -258.67)"/><g class="cls-3"><polygon class="cls-2" points="1259 233.38 1259.36 233.77 1259 233.77 1259 233.38"/><polygon class="cls-2" points="1259 230.81 1261.75 233.77 1259.36 233.77 1259 233.38 1259 230.81"/><polygon class="cls-2" points="1259 228.26 1264.15 233.77 1261.75 233.77 1259 230.81 1259 228.26"/><polygon class="cls-2" points="1259 225.69 1266.55 233.77 1264.15 233.77 1259 228.26 1259 225.69"/><polygon class="cls-2" points="1259 223.13 1268.95 233.77 1266.55 233.77 1259 225.69 1259 223.13"/><polygon class="cls-2" points="1259 220.56 1271.35 233.77 1268.95 233.77 1259 223.13 1259 220.56"/><polygon class="cls-2" points="1259 218.01 1273.75 233.77 1271.35 233.77 1259 220.56 1259 218.01"/><polygon class="cls-2" points="1259 215.45 1276.15 233.77 1273.75 233.77 1259 218.01 1259 215.45"/><polygon class="cls-2" points="1259 212.88 1278.55 233.77 1276.15 233.77 1259 215.45 1259 212.88"/><polygon class="cls-2" points="1259 210.32 1280.94 233.77 1278.55 233.77 1259 212.88 1259 210.32"/><polygon class="cls-2" points="1259 207.75 1283.34 233.77 1280.94 233.77 1259 210.32 1259 207.75"/><polygon class="cls-2" points="1259 205.2 1285.74 233.77 1283.34 233.77 1259 207.75 1259 205.2"/><polygon class="cls-2" points="1259 202.63 1288.14 233.77 1285.74 233.77 1259 205.2 1259 202.63"/><polygon class="cls-2" points="1259 200.07 1290.54 233.77 1288.14 233.77 1259 202.63 1259 200.07"/><polygon class="cls-2" points="1259 197.5 1292.94 233.77 1290.54 233.77 1259 200.07 1259 197.5"/><polygon class="cls-2" points="1259 194.94 1295.34 233.77 1292.94 233.77 1259 197.5 1259 194.94"/><polygon class="cls-2" points="1259 192.39 1297.74 233.77 1295.34 233.77 1259 194.94 1259 192.39"/><polygon class="cls-2" points="1259 189.82 1300.13 233.77 1297.74 233.77 1259 192.39 1259 189.82"/><polygon class="cls-2" points="1259 187.26 1302.53 233.77 1300.13 233.77 1259 189.82 1259 187.26"/><polygon class="cls-2" points="1259 184.69 1304.93 233.77 1302.53 233.77 1259 187.26 1259 184.69"/><polygon class="cls-2" points="1259 182.14 1307.33 233.77 1304.93 233.77 1259 184.69 1259 182.14"/><polygon class="cls-2" points="1259 179.58 1307.41 231.28 1307.41 233.77 1307.33 233.77 1259 182.14 1259 179.58"/><polygon class="cls-2" points="1260.93 179.07 1307.41 228.72 1307.41 231.28 1259 179.58 1259 179.07 1260.93 179.07"/><polygon class="cls-2" points="1263.32 179.07 1307.41 226.16 1307.41 228.72 1260.93 179.07 1263.32 179.07"/><polygon class="cls-2" points="1265.73 179.07 1307.41 223.59 1307.41 226.16 1263.32 179.07 1265.73 179.07"/><polygon class="cls-2" points="1268.13 179.07 1307.41 221.03 1307.41 223.59 1265.73 179.07 1268.13 179.07"/><polygon class="cls-2" points="1270.53 179.07 1307.41 218.46 1307.41 221.03 1268.13 179.07 1270.53 179.07"/><polygon class="cls-2" points="1272.93 179.07 1307.41 215.91 1307.41 218.46 1270.53 179.07 1272.93 179.07"/><polygon class="cls-2" points="1275.33 179.07 1307.41 213.35 1307.41 215.91 1272.93 179.07 1275.33 179.07"/><polygon class="cls-2" points="1277.72 179.07 1307.41 210.78 1307.41 213.35 1275.33 179.07 1277.72 179.07"/><polygon class="cls-2" points="1280.12 179.07 1307.41 208.22 1307.41 210.78 1277.72 179.07 1280.12 179.07"/><polygon class="cls-2" points="1282.52 179.07 1307.41 205.66 1307.41 208.22 1280.12 179.07 1282.52 179.07"/><polygon class="cls-2" points="1284.92 179.07 1307.41 203.1 1307.41 205.66 1282.52 179.07 1284.92 179.07"/><polygon class="cls-2" points="1287.32 179.07 1307.41 200.53 1307.41 203.1 1284.92 179.07 1287.32 179.07"/><polygon class="cls-2" points="1289.72 179.07 1307.41 197.97 1307.41 200.53 1287.32 179.07 1289.72 179.07"/><polygon class="cls-2" points="1292.12 179.07 1307.41 195.4 1307.41 197.97 1289.72 179.07 1292.12 179.07"/><polygon class="cls-2" points="1294.52 179.07 1307.41 192.85 1307.41 195.4 1292.12 179.07 1294.52 179.07"/><polygon class="cls-2" points="1296.91 179.07 1307.41 190.29 1307.41 192.85 1294.52 179.07 1296.91 179.07"/><polygon class="cls-2" points="1299.31 179.07 1307.41 187.72 1307.41 190.29 1296.91 179.07 1299.31 179.07"/><polygon class="cls-2" points="1301.71 179.07 1307.41 185.16 1307.41 187.72 1299.31 179.07 1301.71 179.07"/><polygon class="cls-2" points="1304.11 179.07 1307.41 182.59 1307.41 185.16 1301.71 179.07 1304.11 179.07"/><polygon class="cls-2" points="1306.51 179.07 1307.41 180.04 1307.41 182.59 1304.11 179.07 1306.51 179.07"/><polygon class="cls-2" points="1307.41 180.04 1306.51 179.07 1307.41 179.07 1307.41 180.04"/></g><path class="cls-2" d="M44.25,566l67.62-44.3c12.25,32.12,33.35,53.72,72,53.72,37.2,0,46.55-16.61,46.55-31.57,0-23.8-19.6-33.22-71.05-49.28-51-16.06-100.95-43.74-100.95-117.93,0-74.75,55.86-117.92,115.16-117.92,56.35,0,100.44,30.43,125.44,87.47L232.9,389.89c-11.75-27.68-27.93-44.84-59.28-44.84-24.5,0-36.75,13.84-36.75,29.33,0,17.73,8.32,29.9,61.74,48.17,51.94,17.72,110.32,38.2,110.32,120.15,0,74.74-52.93,119-127.41,119C109.42,661.73,63.36,623,44.25,566Z" transform="translate(-44.25 -258.67)"/><path class="cls-2" d="M609.24,515.57c0,82.49-52.91,146.16-117.1,146.16-32.84,0-56.86-12.74-73-33.77V764.71h-73.5V377.15h73.5v26.09c16.16-21,40.18-33.78,73-33.78C556.33,369.4,609.24,433.07,609.24,515.57Zm-73.49,0c0-41.53-24.5-67.54-58.31-67.54s-58.32,26-58.32,67.54,24.5,67.54,58.32,67.54S535.75,557.09,535.75,515.57Z" transform="translate(-44.25 -258.67)"/><path class="cls-2" d="M638.66,515.57c0-82.5,57.81-146.17,129.84-146.17s129.86,63.67,129.86,146.17S840.54,661.73,768.5,661.73,638.66,598.06,638.66,515.57Zm186.2,0c0-39.31-24.51-65.34-56.36-65.34s-56.35,26.09-56.35,65.34,24.5,65.32,56.35,65.32S824.86,554.87,824.86,515.57Z" transform="translate(-44.25 -258.67)"/><path class="cls-2" d="M1028.23,456.88v98c0,23.82,18.13,26,50.48,23.82V654c-96.06,11.07-124-21.59-124-99.11v-98H915.52V377.17h39.21V324.56l73.5-24.92v77.51h50.52v79.72Z" transform="translate(-44.25 -258.67)"/><path class="cls-2" d="M1598.14,576.47V654h-196V598.6l92.62-144H1407v-77.5h186.21v55.37l-92.61,144Z" transform="translate(-44.25 -258.67)"/><path class="cls-2" d="M1875,377.15l-83.79,268.53c-27.45,88-71.06,122.9-139.66,119V687.2c34.3,0,50.47-12.19,61.25-46l-97.49-264.09h80.82l54.39,169.42,46.06-169.42Z" transform="translate(-44.25 -258.67)"/><g id="E"><path id="SVGID-2" class="cls-2" d="M1146.82,645.5V273.78h198.75v68.56H1210.44v64.58h6.18c21.81.22,41.18,17.39,44.9,41.67,4.22,27.52-12.1,53.69-36.45,58.47a40.28,40.28,0,0,1-7.17.74l-7.44.07v69h137.59v68.54Z" transform="translate(-44.25 -258.67)"/><g class="cls-4"><polygon class="cls-2" points="1102.57 385.47 1103.84 386.83 1102.57 386.83 1102.57 385.47"/><polygon class="cls-2" points="1102.57 365.59 1122.46 386.83 1103.84 386.83 1102.57 385.47 1102.57 365.59"/><polygon class="cls-2" points="1102.57 345.7 1141.08 386.83 1122.46 386.83 1102.57 365.59 1102.57 345.7"/><polygon class="cls-2" points="1102.57 325.8 1159.71 386.83 1141.08 386.83 1102.57 345.7 1102.57 325.8"/><polygon class="cls-2" points="1102.57 305.92 1178.32 386.83 1159.71 386.83 1102.57 325.8 1102.57 305.92"/><polygon class="cls-2" points="1102.57 286.03 1196.95 386.83 1178.32 386.83 1102.57 305.92 1102.57 286.03"/><polygon class="cls-2" points="1102.57 266.13 1215.57 386.83 1196.95 386.83 1102.57 286.03 1102.57 266.13"/><polygon class="cls-2" points="1102.57 246.25 1234.19 386.83 1215.57 386.83 1102.57 266.13 1102.57 246.25"/><polygon class="cls-2" points="1102.57 226.35 1252.81 386.83 1234.19 386.83 1102.57 246.25 1102.57 226.35"/><polygon class="cls-2" points="1102.57 206.46 1271.44 386.83 1252.81 386.83 1102.57 226.35 1102.57 206.46"/><polygon class="cls-2" points="1102.57 186.58 1290.05 386.83 1271.44 386.83 1102.57 206.46 1102.57 186.58"/><polygon class="cls-2" points="1102.57 166.68 1303.78 381.6 1303.78 386.83 1290.05 386.83 1102.57 186.58 1102.57 166.68"/><polygon class="cls-2" points="1102.57 146.79 1303.78 361.7 1303.78 381.6 1102.57 166.68 1102.57 146.79"/><polygon class="cls-2" points="1102.57 126.91 1303.78 341.82 1303.78 361.7 1102.57 146.79 1102.57 126.91"/><polygon class="cls-2" points="1102.57 107.01 1303.78 321.93 1303.78 341.82 1102.57 126.91 1102.57 107.01"/><polygon class="cls-2" points="1102.57 87.12 1303.78 302.05 1303.78 321.93 1102.57 107.01 1102.57 87.12"/><polygon class="cls-2" points="1102.57 67.24 1303.78 282.15 1303.78 302.05 1102.57 87.12 1102.57 67.24"/><polygon class="cls-2" points="1102.57 47.34 1303.78 262.26 1303.78 282.15 1102.57 67.24 1102.57 47.34"/><polygon class="cls-2" points="1102.57 27.45 1303.78 242.38 1303.78 262.26 1102.57 47.34 1102.57 27.45"/><polygon class="cls-2" points="1109.64 15.12 1303.78 222.48 1303.78 242.38 1102.57 27.45 1102.57 15.12 1109.64 15.12"/><polygon class="cls-2" points="1128.27 15.12 1303.78 202.59 1303.78 222.48 1109.64 15.12 1128.27 15.12"/><polygon class="cls-2" points="1146.89 15.12 1303.78 182.69 1303.78 202.59 1128.27 15.12 1146.89 15.12"/><polygon class="cls-2" points="1165.51 15.12 1303.78 162.81 1303.78 182.69 1146.89 15.12 1165.51 15.12"/><polygon class="cls-2" points="1184.13 15.12 1303.78 142.92 1303.78 162.81 1165.51 15.12 1184.13 15.12"/><polygon class="cls-2" points="1202.76 15.12 1303.78 123.02 1303.78 142.92 1184.13 15.12 1202.76 15.12"/><polygon class="cls-2" points="1221.37 15.12 1303.78 103.14 1303.78 123.02 1202.76 15.12 1221.37 15.12"/><polygon class="cls-2" points="1240 15.12 1303.78 83.25 1303.78 103.14 1221.37 15.12 1240 15.12"/><polygon class="cls-2" points="1258.62 15.12 1303.78 63.35 1303.78 83.25 1240 15.12 1258.62 15.12"/><polygon class="cls-2" points="1277.24 15.12 1303.78 43.47 1303.78 63.35 1258.62 15.12 1277.24 15.12"/><polygon class="cls-2" points="1295.86 15.12 1303.78 23.58 1303.78 43.47 1277.24 15.12 1295.86 15.12"/><polygon class="cls-2" points="1303.78 23.58 1295.86 15.12 1303.78 15.12 1303.78 23.58"/></g></g></svg>