<svg id="Layer_1" data-name="Layer 1" xmlns="http://www.w3.org/2000/svg" viewBox="0 0 774.36 1080"><defs><style>.cls-1{fill:#fff;}</style></defs><path id="monogram" class="cls-1" d="M816.61,109.27C746.54,39.85,650.87,1.14,546.72,0h-6.85C435.75,1.14,340.07,39.85,270,109.27c-76.8,76.11-118.2,184-113.48,296.08a618.54,618.54,0,0,0,12.36,97.79c.44,1.46.84,2.95,1.15,4.43.18.91.47,1.76.69,2.62a21.31,21.31,0,0,0,.91,2.33c.63,1.72,1.11,3.48,1.71,5.21a829.67,829.67,0,0,0,46.47,140.34c12.15,28.5,28.89,67.55,74.6,109.41,111.77,102.11,189.78,122.7,234.44,122.7a107.39,107.39,0,0,0,38.54-6.36c29.15-11.3,61.8-58.4,145.19-194.2,6.78-11,13.33-21.81,19.74-32.06,24.76-40,47.35-85.55,27-119.43-19.61-32.66-62-32.76-102.75-32.62h-3.25c-17,0-38.17.3-60.64.6-49.28.68-110.66,1.52-155.3-.43-37.28-1.63-57.8-59.65-62.4-81.38-8.89-81.4,5.78-142.11,43.4-180.46,45.7-46.59,113.37-46.23,117.61-46.06,56.4,4,99.84,22.94,129.12,56.33,38.9,44.35,46.17,104.53,46.68,139H525.53c-15.87,0-30.45,10.13-33.56,25-3.75,17,7.7,33.71,25.57,37.28a34.72,34.72,0,0,0,6.75.67h218.5c17.41,0,32-12.49,33.85-29C778.11,414,788.87,297,715.87,213.77,674.56,166.7,615.5,140.21,540.25,135h-.82c-4-.17-100.19-3.73-168.48,65.2-52.15,52.5-72.74,130.68-61.47,232.11l.38,2.46c9.38,48.07,46.19,130.34,124.49,133.74,46.68,2.12,106.46,1.23,159.25.49,22.23-.29,43.22-.59,59.69-.59h3.4c14.34,0,35.06,0,44.46,2.33-.84,6.2-5.22,22-25.59,54.89-6.38,10.33-13,21.17-19.85,32.25-35.14,57.17-93.54,152.34-114.24,168-9.58,2.24-74.65,11.86-201.25-103.76-35.56-32.59-48.12-61.88-59.15-87.71a769.07,769.07,0,0,1-51.59-167.08c-.34-1.76-.65-2.5-1.07-5.15a533.66,533.66,0,0,1-5.87-59.29c-4-95.06,30.74-186.18,95.17-250,59-58.63,137-89.7,225.61-90,88.58.32,166.61,31.39,225.72,90,64.47,63.84,99.1,155,95.17,250-12.87,310.59-313.45,608.84-316.58,611.61-2,1.8-3.13,2.69-4.29,2.71s-2.33-.91-4.31-2.71c-1.09-1-40.88-40.4-91.92-105C406.38,892.38,356,861.1,295.48,805.94q13.33,21.94,28.12,44.11c77,115.45,156.52,197.68,169.59,209.64l.15.19c14.72,13.43,32.35,20.12,50,20.12h0c17.63,0,35.25-6.69,50-20.12l.16-.19c13.07-12,92.61-94.21,169.59-209.64,105.19-157.83,161.43-307.43,167.12-444.7C934.79,293.29,893.42,185.38,816.61,109.27Z" transform="translate(-156.15)"/></svg>