<svg id="Layer_1" data-name="Layer 1" xmlns="http://www.w3.org/2000/svg" xmlns:xlink="http://www.w3.org/1999/xlink" viewBox="0 0 1920 618.59"><defs><style>.cls-1{fill:#f4545f;}.cls-2,.cls-5{fill:#f4554f;}.cls-3{clip-path:url(#clip-path);}.cls-4{fill:#333;}.cls-5{stroke:#f4554f;stroke-miterlimit:10;}.cls-6{clip-path:url(#clip-path-2);}</style><clipPath id="clip-path"><path class="cls-1" d="M1460.2,307.27a18.89,18.89,0,1,1,14.07-14.07A18.93,18.93,0,0,1,1460.2,307.27Z"/></clipPath><clipPath id="clip-path-2"><path id="SVGID" class="cls-2" d="M1315.07,413.36V156.89H1470v47.3H1364.66v44.56l4.82,0c17,.15,32.1,12,35,28.75a34.89,34.89,0,0,1-34,40.85l-5.8.05v47.63h107.26v47.29Z"/></clipPath></defs><path class="cls-1" d="M1460.2,307.27a18.89,18.89,0,1,1,14.07-14.07A18.93,18.93,0,0,1,1460.2,307.27Z"/><g class="cls-3"><polygon class="cls-1" points="1437.01 307.48 1437.29 307.75 1437.01 307.75 1437.01 307.48"/><polygon class="cls-1" points="1437.01 305.71 1439.16 307.75 1437.29 307.75 1437.01 307.48 1437.01 305.71"/><polygon class="cls-1" points="1437.01 303.95 1441.03 307.75 1439.16 307.75 1437.01 305.71 1437.01 303.95"/><polygon class="cls-1" points="1437.01 302.18 1442.9 307.75 1441.03 307.75 1437.01 303.95 1437.01 302.18"/><polygon class="cls-1" points="1437.01 300.41 1444.77 307.75 1442.9 307.75 1437.01 302.18 1437.01 300.41"/><polygon class="cls-1" points="1437.01 298.64 1446.64 307.75 1444.77 307.75 1437.01 300.41 1437.01 298.64"/><polygon class="cls-1" points="1437.01 296.88 1448.51 307.75 1446.64 307.75 1437.01 298.64 1437.01 296.88"/><polygon class="cls-1" points="1437.01 295.11 1450.38 307.75 1448.51 307.75 1437.01 296.88 1437.01 295.11"/><polygon class="cls-1" points="1437.01 293.34 1452.25 307.75 1450.38 307.75 1437.01 295.11 1437.01 293.34"/><polygon class="cls-1" points="1437.01 291.57 1454.12 307.75 1452.25 307.75 1437.01 293.34 1437.01 291.57"/><polygon class="cls-1" points="1437.01 289.8 1455.99 307.75 1454.12 307.75 1437.01 291.57 1437.01 289.8"/><polygon class="cls-1" points="1437.01 288.04 1457.86 307.75 1455.99 307.75 1437.01 289.8 1437.01 288.04"/><polygon class="cls-1" points="1437.01 286.27 1459.73 307.75 1457.86 307.75 1437.01 288.04 1437.01 286.27"/><polygon class="cls-1" points="1437.01 284.5 1461.6 307.75 1459.73 307.75 1437.01 286.27 1437.01 284.5"/><polygon class="cls-1" points="1437.01 282.73 1463.47 307.75 1461.6 307.75 1437.01 284.5 1437.01 282.73"/><polygon class="cls-1" points="1437.01 280.96 1465.34 307.75 1463.47 307.75 1437.01 282.73 1437.01 280.96"/><polygon class="cls-1" points="1437.01 279.2 1467.21 307.75 1465.34 307.75 1437.01 280.96 1437.01 279.2"/><polygon class="cls-1" points="1437.01 277.43 1469.08 307.75 1467.21 307.75 1437.01 279.2 1437.01 277.43"/><polygon class="cls-1" points="1437.01 275.66 1470.95 307.75 1469.08 307.75 1437.01 277.43 1437.01 275.66"/><polygon class="cls-1" points="1437.01 273.89 1472.82 307.75 1470.95 307.75 1437.01 275.66 1437.01 273.89"/><polygon class="cls-1" points="1437.01 272.13 1474.69 307.75 1472.82 307.75 1437.01 273.89 1437.01 272.13"/><polygon class="cls-1" points="1437.01 270.36 1474.75 306.03 1474.75 307.75 1474.69 307.75 1437.01 272.13 1437.01 270.36"/><polygon class="cls-1" points="1438.52 270.01 1474.75 304.27 1474.75 306.03 1437.01 270.36 1437.01 270.01 1438.52 270.01"/><polygon class="cls-1" points="1440.38 270.01 1474.75 302.5 1474.75 304.27 1438.52 270.01 1440.38 270.01"/><polygon class="cls-1" points="1442.26 270.01 1474.75 300.73 1474.75 302.5 1440.38 270.01 1442.26 270.01"/><polygon class="cls-1" points="1444.13 270.01 1474.75 298.96 1474.75 300.73 1442.26 270.01 1444.13 270.01"/><polygon class="cls-1" points="1446 270.01 1474.75 297.19 1474.75 298.96 1444.13 270.01 1446 270.01"/><polygon class="cls-1" points="1447.87 270.01 1474.75 295.43 1474.75 297.19 1446 270.01 1447.87 270.01"/><polygon class="cls-1" points="1449.74 270.01 1474.75 293.66 1474.75 295.43 1447.87 270.01 1449.74 270.01"/><polygon class="cls-1" points="1451.61 270.01 1474.75 291.89 1474.75 293.66 1449.74 270.01 1451.61 270.01"/><polygon class="cls-1" points="1453.48 270.01 1474.75 290.12 1474.75 291.89 1451.61 270.01 1453.48 270.01"/><polygon class="cls-1" points="1455.35 270.01 1474.75 288.36 1474.75 290.12 1453.48 270.01 1455.35 270.01"/><polygon class="cls-1" points="1457.22 270.01 1474.75 286.59 1474.75 288.36 1455.35 270.01 1457.22 270.01"/><polygon class="cls-1" points="1459.09 270.01 1474.75 284.82 1474.75 286.59 1457.22 270.01 1459.09 270.01"/><polygon class="cls-1" points="1460.96 270.01 1474.75 283.05 1474.75 284.82 1459.09 270.01 1460.96 270.01"/><polygon class="cls-1" points="1462.83 270.01 1474.75 281.28 1474.75 283.05 1460.96 270.01 1462.83 270.01"/><polygon class="cls-1" points="1464.7 270.01 1474.75 279.52 1474.75 281.28 1462.83 270.01 1464.7 270.01"/><polygon class="cls-1" points="1466.57 270.01 1474.75 277.75 1474.75 279.52 1464.7 270.01 1466.57 270.01"/><polygon class="cls-1" points="1468.44 270.01 1474.75 275.98 1474.75 277.75 1466.57 270.01 1468.44 270.01"/><polygon class="cls-1" points="1470.31 270.01 1474.75 274.21 1474.75 275.98 1468.44 270.01 1470.31 270.01"/><polygon class="cls-1" points="1472.18 270.01 1474.75 272.44 1474.75 274.21 1470.31 270.01 1472.18 270.01"/><polygon class="cls-1" points="1474.05 270.01 1474.75 270.68 1474.75 272.44 1472.18 270.01 1474.05 270.01"/><polygon class="cls-1" points="1474.75 270.68 1474.05 270.01 1474.75 270.01 1474.75 270.68"/></g><path class="cls-4" d="M455.56,358.47l52.71-30.56c9.55,22.16,26,37.06,56.16,37.06,29,0,36.29-11.46,36.29-21.78,0-16.42-15.28-22.92-55.39-34-39.73-11.08-78.69-30.18-78.69-81.37,0-51.57,43.54-81.36,89.77-81.36,43.93,0,78.3,21,97.79,60.35L602.62,237c-9.16-19.1-21.77-30.94-46.21-30.94-19.1,0-28.65,9.55-28.65,20.24,0,12.23,6.49,20.63,48.13,33.23,40.49,12.23,86,26.36,86,82.9,0,51.57-41.26,82.13-99.32,82.13C506.36,424.56,470.46,397.82,455.56,358.47Z"/><path class="cls-4" d="M896,323.71c0,56.92-41.25,100.85-91.29,100.85-25.6,0-44.32-8.79-56.92-23.3v94.35h-57.3V228.21h57.3v18c12.6-14.52,31.32-23.31,56.92-23.31C854.75,222.86,896,266.79,896,323.71Zm-57.29,0c0-28.65-19.1-46.6-45.46-46.6s-45.46,17.95-45.46,46.6,19.1,46.6,45.46,46.6S838.71,352.36,838.71,323.71Z"/><path class="cls-4" d="M918.93,323.71c0-56.92,45.07-100.85,101.22-100.85s101.23,43.93,101.23,100.85-45.07,100.85-101.23,100.85S918.93,380.63,918.93,323.71Zm145.15,0c0-27.12-19.1-45.08-43.93-45.08s-43.93,18-43.93,45.08,19.1,45.07,43.93,45.07S1064.08,350.83,1064.08,323.71Z"/><path class="cls-4" d="M1222.62,283.22v67.61c0,16.43,14.13,17.95,39.35,16.43v51.95c-74.88,7.64-96.65-14.9-96.65-68.38V283.22h-30.56v-55h30.56V191.92l57.3-17.19v53.48H1262v55Z"/><path class="cls-4" d="M1666.89,365.73v53.48h-152.8V381l72.2-99.32h-68.38V228.21h145.16v38.2l-72.2,99.32Z"/><path class="cls-4" d="M1882.72,228.21,1817.4,413.48c-21.4,60.73-55.39,84.8-108.87,82.13V442.13c26.74,0,39.34-8.41,47.75-31.71l-76-182.21h63l42.4,116.89,35.91-116.89Z"/><path id="monogram" class="cls-5" d="M319.94,104.34c-31.52-32.78-74.56-51.06-121.41-51.6h-3.08c-46.84.54-89.88,18.82-121.4,51.6C39.5,140.28,20.88,191.24,23,244.16a306,306,0,0,0,5.56,46.18c.2.69.38,1.39.52,2.09.08.43.21.83.31,1.24s.28.73.41,1.1c.28.81.5,1.64.77,2.46A405.28,405.28,0,0,0,51.47,363.5c5.47,13.46,13,31.9,33.56,51.67,50.28,48.22,85.37,57.94,105.46,57.94a46.29,46.29,0,0,0,17.34-3c13.11-5.34,27.8-27.58,65.31-91.71,3.05-5.21,6-10.3,8.88-15.14,11.14-18.91,21.3-40.4,12.15-56.4-8.82-15.42-27.88-15.47-46.22-15.4h-1.46c-7.63,0-17.17.14-27.28.28-22.17.32-49.78.72-69.86-.2-16.77-.77-26-28.17-28.07-38.43-4-38.44,2.6-67.11,19.52-85.22,20.56-22,51-21.83,52.91-21.75,25.37,1.88,44.91,10.83,58.08,26.6,17.5,20.94,20.77,49.36,21,65.66H189c-7.14,0-13.7,4.78-15.1,11.78a14.87,14.87,0,0,0,14.54,17.92h98.29a15.29,15.29,0,0,0,15.23-13.69c.66-6.17,5.5-61.42-27.34-100.72-18.58-22.23-45.15-34.74-79-37.19l-.37,0c-1.82-.08-45.07-1.76-75.79,30.79C96,172.08,86.74,209,91.81,256.9l.17,1.16c4.22,22.7,20.78,61.55,56,63.16,21,1,47.89.58,71.64.23,10-.14,19.44-.28,26.85-.28H248c6.45,0,15.77,0,20,1.1-.38,2.93-2.35,10.38-11.51,25.92-2.87,4.88-5.87,10-8.93,15.23-15.81,27-42.08,71.94-51.39,79.35-4.31,1.06-33.58,5.6-90.53-49-16-15.39-21.65-29.22-26.61-41.42a376.81,376.81,0,0,1-23.21-78.9c-.15-.83-.29-1.18-.48-2.43a265.41,265.41,0,0,1-2.64-28c-1.78-44.89,13.83-87.92,42.81-118.07C122.05,97.26,157.15,82.59,197,82.44c39.85.15,74.95,14.82,101.54,42.48,29,30.15,44.58,73.18,42.81,118.07-5.79,146.67-141,287.51-142.41,288.82-.88.85-1.41,1.27-1.93,1.28s-1.05-.43-1.94-1.28c-.49-.47-18.39-19.08-41.35-49.57-18.32-8.09-41-22.86-68.21-48.91,4,6.91,8.22,13.85,12.65,20.83,34.63,54.52,70.41,93.35,76.29,99l.07.09c6.62,6.34,14.55,9.5,22.48,9.5h0c7.93,0,15.86-3.16,22.48-9.5l.07-.09c5.88-5.66,41.66-44.49,76.29-99,47.32-74.53,72.62-145.18,75.18-210C373.1,191.24,354.49,140.28,319.94,104.34Z"/><g id="E"><path id="SVGID-2" data-name="SVGID" class="cls-2" d="M1315.07,413.36V156.89H1470v47.3H1364.66v44.56l4.82,0c17,.15,32.1,12,35,28.75a34.89,34.89,0,0,1-34,40.85l-5.8.05v47.63h107.26v47.29Z"/><g class="cls-6"><polygon class="cls-2" points="1315.07 412.42 1316.06 413.36 1315.07 413.36 1315.07 412.42"/><polygon class="cls-2" points="1315.07 398.7 1330.57 413.36 1316.06 413.36 1315.07 412.42 1315.07 398.7"/><polygon class="cls-2" points="1315.07 384.98 1345.09 413.36 1330.57 413.36 1315.07 398.7 1315.07 384.98"/><polygon class="cls-2" points="1315.07 371.25 1359.61 413.36 1345.09 413.36 1315.07 384.98 1315.07 371.25"/><polygon class="cls-2" points="1315.07 357.53 1374.12 413.36 1359.61 413.36 1315.07 371.25 1315.07 357.53"/><polygon class="cls-2" points="1315.07 343.81 1388.64 413.36 1374.12 413.36 1315.07 357.53 1315.07 343.81"/><polygon class="cls-2" points="1315.07 330.08 1403.16 413.36 1388.64 413.36 1315.07 343.81 1315.07 330.08"/><polygon class="cls-2" points="1315.07 316.36 1417.67 413.36 1403.16 413.36 1315.07 330.08 1315.07 316.36"/><polygon class="cls-2" points="1315.07 302.63 1432.19 413.36 1417.67 413.36 1315.07 316.36 1315.07 302.63"/><polygon class="cls-2" points="1315.07 288.91 1446.71 413.36 1432.19 413.36 1315.07 302.63 1315.07 288.91"/><polygon class="cls-2" points="1315.07 275.19 1461.22 413.36 1446.71 413.36 1315.07 288.91 1315.07 275.19"/><polygon class="cls-2" points="1315.07 261.46 1471.92 409.75 1471.92 413.36 1461.22 413.36 1315.07 275.19 1315.07 261.46"/><polygon class="cls-2" points="1315.07 247.74 1471.92 396.02 1471.92 409.75 1315.07 261.46 1315.07 247.74"/><polygon class="cls-2" points="1315.07 234.02 1471.92 382.3 1471.92 396.02 1315.07 247.74 1315.07 234.02"/><polygon class="cls-2" points="1315.07 220.29 1471.92 368.58 1471.92 382.3 1315.07 234.02 1315.07 220.29"/><polygon class="cls-2" points="1315.07 206.57 1471.92 354.86 1471.92 368.58 1315.07 220.29 1315.07 206.57"/><polygon class="cls-2" points="1315.07 192.85 1471.92 341.13 1471.92 354.86 1315.07 206.57 1315.07 192.85"/><polygon class="cls-2" points="1315.07 179.12 1471.92 327.41 1471.92 341.13 1315.07 192.85 1315.07 179.12"/><polygon class="cls-2" points="1315.07 165.4 1471.92 313.69 1471.92 327.41 1315.07 179.12 1315.07 165.4"/><polygon class="cls-2" points="1320.58 156.89 1471.92 299.96 1471.92 313.69 1315.07 165.4 1315.07 156.89 1320.58 156.89"/><polygon class="cls-2" points="1335.1 156.89 1471.92 286.24 1471.92 299.96 1320.58 156.89 1335.1 156.89"/><polygon class="cls-2" points="1349.62 156.89 1471.92 272.51 1471.92 286.24 1335.1 156.89 1349.62 156.89"/><polygon class="cls-2" points="1364.13 156.89 1471.92 258.79 1471.92 272.51 1349.62 156.89 1364.13 156.89"/><polygon class="cls-2" points="1378.65 156.89 1471.92 245.07 1471.92 258.79 1364.13 156.89 1378.65 156.89"/><polygon class="cls-2" points="1393.17 156.89 1471.92 231.34 1471.92 245.07 1378.65 156.89 1393.17 156.89"/><polygon class="cls-2" points="1407.68 156.89 1471.92 217.62 1471.92 231.34 1393.17 156.89 1407.68 156.89"/><polygon class="cls-2" points="1422.2 156.89 1471.92 203.9 1471.92 217.62 1407.68 156.89 1422.2 156.89"/><polygon class="cls-2" points="1436.72 156.89 1471.92 190.17 1471.92 203.9 1422.2 156.89 1436.72 156.89"/><polygon class="cls-2" points="1451.23 156.89 1471.92 176.45 1471.92 190.17 1436.72 156.89 1451.23 156.89"/><polygon class="cls-2" points="1465.75 156.89 1471.92 162.73 1471.92 176.45 1451.23 156.89 1465.75 156.89"/><polygon class="cls-2" points="1471.92 162.73 1465.75 156.89 1471.92 156.89 1471.92 162.73"/></g></g></svg>